<svg
  width="64"
  height="64"
  viewBox="0 0 64 64"
  fill="none"
  xmlns="http://www.w3.org/2000/svg"
>
  <defs>
    <linearGradient id="fav-bg" x1="10" y1="7" x2="54" y2="57" gradientUnits="userSpaceOnUse">
      <stop stop-color="#DFF8FF" />
      <stop offset="0.48" stop-color="#7DD3FC" />
      <stop offset="1" stop-color="#0F766E" />
    </linearGradient>
    <linearGradient id="fav-flow" x1="19" y1="17" x2="46" y2="47" gradientUnits="userSpaceOnUse">
      <stop stop-color="#F8FDFF" />
      <stop offset="0.54" stop-color="#B7F0FF" />
      <stop offset="1" stop-color="#34D399" />
    </linearGradient>
  </defs>
  <rect x="4" y="4" width="56" height="56" rx="18" fill="#031B1F" />
  <rect x="6" y="6" width="52" height="52" rx="16" fill="url(#fav-bg)" />
  <circle cx="32" cy="30.5" r="16" fill="#ECFEFF" fill-opacity="0.9" />
  <path
    d="M32 14.5C40.664 14.5 48 21.836 48 30.5C48 39.164 40.664 46.5 32 46.5C28.424 46.5 25.127 45.248 22.542 43.147C27.944 42.071 32 37.299 32 31.578C32 25.064 26.718 19.782 20.204 19.782C19.749 19.782 19.302 19.808 18.864 19.861C21.787 16.452 26.128 14.5 32 14.5Z"
    fill="#0F766E"
    fill-opacity="0.9"
  />
  <path
    d="M43 28.956C43 37.442 36.144 44 27.684 44C21.392 44 15.964 40.371 13.355 35.096C14.902 35.947 16.677 36.43 18.565 36.43C24.551 36.43 29.404 31.577 29.404 25.591C29.404 20.157 25.404 15.657 20.181 14.869C22.406 13.659 24.95 13 27.684 13C36.362 13 43 19.638 43 28.316V28.956Z"
    fill="url(#fav-flow)"
  />
  <circle cx="20.7" cy="26.4" r="6.1" fill="#031B1F" />
  <circle cx="38.9" cy="35" r="6.1" fill="#F8FDFF" />
</svg>
