<svg
  width="64"
  height="64"
  viewBox="0 0 64 64"
  xmlns="http://www.w3.org/2000/svg"
  fill="none"
>
  <path
    d="M32 8C18.745 8 8 18.745 8 32C8 45.255 18.745 56 32 56C45.255 56 56 45.255 56 32C56 18.745 45.255 8 32 8Z"
    fill="#000000"
  />
  <path
    d="M32 8C45.255 8 56 18.745 56 32C56 45.255 45.255 56 32 56C27.29 56 22.959 54.639 19.317 52.29C27.109 50.835 33.006 43.994 33.006 35.783C33.006 26.518 25.494 19.006 16.229 19.006C14.623 19.006 13.071 19.231 11.601 19.652C15.934 12.723 23.622 8 32 8Z"
    fill="#000000"
    fill-opacity="0.56"
  />
  <path
    d="M49 29.791C49 39.772 40.789 47.729 30.792 47.729C23.141 47.729 16.593 43.001 13.91 36.313C15.462 37.195 17.256 37.7 19.167 37.7C25.03 37.7 29.783 32.947 29.783 27.084C29.783 21.796 25.916 17.409 20.856 16.598C23.682 14.956 26.969 14 30.479 14C40.603 14 49 22.224 49 32.348V29.791Z"
    fill="#000000"
  />
  <circle cx="20.5" cy="27.5" r="6" fill="#FFFFFF" />
  <circle cx="39" cy="36" r="6" fill="#000000" />
</svg>
