<svg
  width="256"
  height="256"
  viewBox="0 0 256 256"
  fill="none"
  xmlns="http://www.w3.org/2000/svg"
>
  <defs>
    <linearGradient id="studio-bg" x1="44" y1="28" x2="210" y2="228" gradientUnits="userSpaceOnUse">
      <stop stop-color="#DFF8FF" />
      <stop offset="0.48" stop-color="#7DD3FC" />
      <stop offset="1" stop-color="#0F766E" />
    </linearGradient>
    <linearGradient id="studio-flow" x1="77" y1="66" x2="178" y2="185" gradientUnits="userSpaceOnUse">
      <stop stop-color="#F8FDFF" />
      <stop offset="0.54" stop-color="#B7F0FF" />
      <stop offset="1" stop-color="#34D399" />
    </linearGradient>
  </defs>
  <rect x="20" y="20" width="216" height="216" rx="72" fill="#031B1F" />
  <rect x="28" y="28" width="200" height="200" rx="64" fill="url(#studio-bg)" />
  <path
    d="M128 58C92.654 58 64 86.654 64 122C64 157.346 92.654 186 128 186C163.346 186 192 157.346 192 122C192 86.654 163.346 58 128 58Z"
    fill="#ECFEFF"
    fill-opacity="0.88"
  />
  <path
    d="M128 58C163.346 58 192 86.654 192 122C192 157.346 163.346 186 128 186C115.406 186 103.828 182.362 94.084 176.084C114.932 172.192 130.708 153.892 130.708 131.916C130.708 107.112 110.596 87 85.792 87C81.493 87 77.336 87.604 73.401 88.73C84.995 70.193 105.558 58 128 58Z"
    fill="#0F766E"
    fill-opacity="0.9"
  />
  <path
    d="M128 74C101.49 74 80 95.49 80 122C80 148.51 101.49 170 128 170C154.51 170 176 148.51 176 122C176 95.49 154.51 74 128 74Z"
    fill="#052E33"
    fill-opacity="0.08"
  />
  <path
    d="M173 116.221C173 142.25 151.686 163 125.611 163C105.664 163 88.595 150.67 81.603 133.229C85.65 135.53 90.331 136.846 95.319 136.846C110.628 136.846 123.039 124.435 123.039 109.126C123.039 95.319 112.941 83.869 99.73 81.75C107.11 77.464 115.691 75 124.846 75C151.253 75 173 96.464 173 122.871V116.221Z"
    fill="url(#studio-flow)"
  />
  <path
    d="M99.846 93.5C90.404 93.5 82.75 101.154 82.75 110.596C82.75 120.038 90.404 127.692 99.846 127.692C109.288 127.692 116.942 120.038 116.942 110.596C116.942 101.154 109.288 93.5 99.846 93.5Z"
    fill="#031B1F"
  />
  <path
    d="M149.654 116.308C140.212 116.308 132.558 123.962 132.558 133.404C132.558 142.846 140.212 150.5 149.654 150.5C159.096 150.5 166.75 142.846 166.75 133.404C166.75 123.962 159.096 116.308 149.654 116.308Z"
    fill="#F8FDFF"
  />
  <path
    d="M66 190.5C82.3 176.145 101.356 169 123.167 169C143.945 169 163.556 176.548 182 191.644"
    stroke="#F8FDFF"
    stroke-opacity="0.68"
    stroke-width="8"
    stroke-linecap="round"
  />
</svg>
